<?xml version="1.0" encoding="UTF-8" standalone="no"?>
<!-- Created with Inkscape (http://www.inkscape.org/) -->

<svg
   width="58.674mm"
   height="35.390656mm"
   viewBox="0 0 58.674 35.390656"
   version="1.1"
   id="svg5"
   xml:space="preserve"
   inkscape:version="1.2.2 (b0a8486541, 2022-12-01)"
   sodipodi:docname="logo_dark.svg"
   xmlns:inkscape="http://www.inkscape.org/namespaces/inkscape"
   xmlns:sodipodi="http://sodipodi.sourceforge.net/DTD/sodipodi-0.dtd"
   xmlns="http://www.w3.org/2000/svg"
   xmlns:svg="http://www.w3.org/2000/svg"><sodipodi:namedview
     id="namedview7"
     pagecolor="#ffffff"
     bordercolor="#000000"
     borderopacity="0.25"
     inkscape:showpageshadow="2"
     inkscape:pageopacity="0.0"
     inkscape:pagecheckerboard="0"
     inkscape:deskcolor="#d1d1d1"
     inkscape:document-units="mm"
     showgrid="false"
     inkscape:zoom="2.7104306"
     inkscape:cx="131.71339"
     inkscape:cy="89.838124"
     inkscape:window-width="794"
     inkscape:window-height="868"
     inkscape:window-x="798"
     inkscape:window-y="0"
     inkscape:window-maximized="0"
     inkscape:current-layer="g411" /><defs
     id="defs2" /><g
     inkscape:label="Capa 1"
     inkscape:groupmode="layer"
     id="layer1"
     transform="translate(-59.38136,-95.1853)"><g
       id="g411"
       transform="translate(3.7245925,0.08729442)"><path
         style="fill:#ffffff;stroke-width:0.0846667;fill-opacity:1"
         d="m 76.308923,120.84319 -0.247487,-0.24749 v -8.37913 -8.37914 l 0.161823,-0.19988 0.161823,-0.19988 1.425608,-0.01 1.425608,-0.01 0.296402,0.31631 0.296402,0.31631 0.09668,0.12484 0.09668,0.12485 1.029982,1.38921 1.029983,1.38921 0.101008,0.12926 0.101008,0.12926 0.373399,0.54808 0.3734,0.54807 0.168074,0.18789 0.168074,0.18789 0.07139,-0.0441 0.07139,-0.0441 -0.05034,0.13117 -0.05033,0.13116 0.241804,0.28459 0.241804,0.28458 0.364806,0.47765 0.364805,0.47764 h 0.153035 0.153035 l 0.286493,-0.37351 0.286493,-0.37351 0.169333,-0.23142 0.169334,-0.23142 0.169333,-0.23156 0.169333,-0.23156 0.635,-0.8222 0.635,-0.8222 0.212066,-0.30981 0.212065,-0.30981 0.752954,-1.016 0.752955,-1.016 0.34049,-0.44974 0.34049,-0.44975 0.173829,-0.12175 0.173829,-0.12176 h 1.38201 1.382009 l 0.207818,0.20782 0.207819,0.20782 v 8.41663 8.41664 l -0.223212,0.22321 -0.223213,0.22321 h -1.211399 -1.2114 l -0.232594,-0.20007 -0.232594,-0.20006 -0.01974,-5.19744 -0.01974,-5.19743 -0.0064,-0.4445 -0.0064,-0.4445 -0.148167,0.001 -0.148166,0.001 -0.338985,0.35843 -0.338983,0.35844 -0.240585,0.35486 -0.240586,0.35486 0.06348,0.10272 0.06349,0.10272 -0.09377,-0.058 -0.09377,-0.058 -0.351865,0.44704 -0.351867,0.44704 -0.07544,0.0282 -0.07544,0.0282 -4.23e-4,0.0988 -4.23e-4,0.0988 -0.232443,0.254 -0.232441,0.254 -0.232833,0.31185 -0.232833,0.31185 v 0.0953 0.0953 l 0.08467,-0.0523 0.08467,-0.0523 v 0.0987 0.0987 l -0.117289,-0.045 -0.117288,-0.045 -0.25691,0.31112 -0.25691,0.31111 -0.357424,0.46567 -0.357425,0.46567 -0.258652,0.27516 -0.258653,0.27517 H 84.78204 84.47659 l -0.258312,-0.27517 -0.258314,-0.27516 -0.471973,-0.635 -0.471973,-0.635 -0.916092,-1.19033 -0.916156,-1.19033 -0.252396,-0.33367 -0.252398,-0.33367 -0.340269,-0.4331 -0.34027,-0.4331 -0.124525,-0.18074 -0.124524,-0.18073 h -0.150642 -0.150643 l -0.0055,0.10584 -0.0055,0.10583 -0.01563,5.53177 -0.01563,5.53177 -0.237554,0.2044 -0.237555,0.20439 h -1.187125 -1.187125 l -0.247487,-0.24748 z m 22.44318,-0.13352 v -0.0423 h 0.0423 0.0423 v 0.0423 0.0423 h -0.0423 -0.0423 z m 3.047997,0 v -0.0423 h 0.0423 0.0423 v 0.0423 0.0423 h -0.0423 -0.0423 z m -13.106825,-0.33866 0.0031,-0.254 0.03903,0.14978 0.03903,0.14977 -0.04217,0.10423 -0.04217,0.10422 0.0031,-0.254 z m 10.013188,-3.89467 3e-5,-3.89467 0.0244,1.97431 0.0244,1.97431 -0.0244,1.92036 -0.0244,1.92036 z m 3.305307,-1.143 0.0523,-0.0847 h 0.0423 0.0423 l -0.0523,0.0847 -0.0523,0.0847 h -0.0423 -0.0423 z m 1.03717,-0.14753 0.61383,-0.0292 0.61383,0.0292 0.61384,0.0292 h -1.22767 -1.22767 z m 5.04472,-0.0782 0.0564,-0.0564 0.0564,0.0564 0.0564,0.0564 h -0.11289 -0.11289 z m 0.47978,-0.0706 v -0.0423 h 0.0423 0.0423 v 0.0423 0.0423 h -0.0423 -0.0423 z m 0.59266,-0.16934 v -0.0423 h 0.0423 0.0423 v 0.0423 0.0423 h -0.0423 -0.0423 z m 0.67734,-0.254 v -0.0423 h 0.0423 0.0423 v 0.0423 0.0423 h -0.0423 -0.0423 z m -27.855338,-0.0847 v -0.0423 h 0.04233 0.04233 v 0.0423 0.0423 h -0.04233 -0.04233 z m 28.024668,0 v -0.0423 h 0.0423 0.0423 v 0.0423 0.0423 h -0.0423 -0.0423 z m 0.33867,-0.16934 v -0.0423 h 0.0423 0.0423 v 0.0423 0.0423 h -0.0423 -0.0423 z m -28.532671,-0.0847 v -0.0423 h 0.04233 0.04233 v 0.0423 0.0423 h -0.04233 -0.04233 z m 28.956001,-0.16934 v -0.0423 h 0.0423 0.0423 v 0.0423 0.0423 h -0.0423 -0.0423 z m -22.775334,-0.0847 v -0.0423 h 0.04233 0.04233 v 0.0423 0.0423 h -0.04233 -0.04233 z m 0.508,0 v -0.0423 h 0.04233 0.04233 v 0.0423 0.0423 h -0.04233 -0.04233 z m -0.677334,-0.0847 v -0.0423 h 0.04233 0.04233 v 0.0423 0.0423 h -0.04233 -0.04233 z m -6.400418,-0.14008 -0.06041,-0.0978 0.09775,0.0604 0.09775,0.0604 v 0.0373 0.0373 h -0.03734 -0.03734 z m 6.231085,0.0554 v -0.0423 h 0.04233 0.04233 v 0.0423 0.0423 h -0.04233 -0.04233 z m -0.169333,-0.0847 v -0.0423 h 0.04233 0.04233 v 0.0423 0.0423 h -0.04233 -0.04233 z m 1.354666,-0.0847 v -0.0423 h 0.04233 0.04233 v 0.0423 0.0423 h -0.04233 -0.04233 z m 22.478998,-0.0423 0.0523,-0.0847 h 0.0423 0.0423 l -0.0523,0.0847 -0.0523,0.0847 h -0.0423 -0.0423 z m -22.394331,-0.127 v -0.0423 h 0.04233 0.04233 v 0.0423 0.0423 h -0.04233 -0.04233 z m -7.789333,-0.0847 v -0.0423 h 0.04233 0.04233 v 0.0423 0.0423 h -0.04233 -0.04233 z m 30.522334,-0.127 0.0523,-0.0847 h 0.0423 0.0423 l -0.0523,0.0847 -0.0523,0.0847 h -0.0423 -0.0423 z m -24.511001,-0.21167 v -0.0423 h 0.04233 0.04233 v 0.0423 0.0423 h -0.04233 -0.04233 z m 2.032,0 v -0.0423 h 0.04233 0.04233 v 0.0423 0.0423 h -0.04233 -0.04233 z m 0.08467,-0.16933 v -0.0423 h 0.04233 0.04233 v 0.0423 0.0423 h -0.04233 -0.04233 z m -1.905,-0.127 0.05233,-0.0847 h 0.04233 0.04233 l -0.05233,0.0847 -0.05233,0.0847 h -0.04233 -0.04233 z m 1.989666,-0.0423 v -0.0423 h 0.04233 0.04233 v 0.0423 0.0423 h -0.04233 -0.04233 z m 0.08467,-0.16934 v -0.0423 h 0.04233 0.04233 v 0.0423 0.0423 h -0.04233 -0.04233 z m 22.775335,0 v -0.0423 h 0.0423 0.0423 v 0.0423 0.0423 h -0.0423 -0.0423 z m -24.553335,-0.16933 v -0.0423 h 0.04233 0.04233 v 0.0423 0.0423 h -0.04233 -0.04233 z m 1.947333,-0.0847 v -0.0423 h 0.04233 0.04233 v 0.0423 0.0423 h -0.04233 -0.04233 z m 0.381,-0.0423 0.05233,-0.0847 h 0.03734 0.03734 v 0.0847 0.0847 h -0.08966 -0.08966 z m 22.394342,0.0423 v -0.0423 h 0.0423 0.0423 v 0.0423 0.0423 h -0.0423 -0.0423 z m -13.504347,-0.127 0.0523,-0.0847 h 0.0423 0.0423 l -0.0523,0.0847 -0.0523,0.0847 h -0.0423 -0.0423 z m -10.964328,-0.127 v -0.0423 h 0.04233 0.04233 v 0.0423 0.0423 h -0.04233 -0.04233 z m 11.832168,-0.10432 0.359837,-0.0324 0.35983,0.0324 0.35984,0.0324 h -0.71967 -0.719677 z m 7.754057,0.006 0.0564,-0.0564 0.0564,0.0564 0.0564,0.0564 h -0.11288 -0.11289 l 0.0564,-0.0564 z m 0.73378,-0.15522 v -0.0423 h 0.0423 0.0423 v 0.0423 0.0423 h -0.0423 -0.0423 z m -20.066005,-0.0847 v -0.0423 h 0.04233 0.04233 v 0.0423 0.0423 h -0.04233 -0.04233 z m 6.688668,-0.16934 v -0.0423 h 0.0423 0.0423 v 0.0423 0.0423 h -0.0423 -0.0423 z m 17.864667,0 v -0.0423 h 0.0423 0.0423 v 0.0423 0.0423 h -0.0423 -0.0423 z m -14.562667,-0.16933 v -0.0423 h 0.0423 0.0423 v 0.0423 0.0423 h -0.0423 -0.0423 z m 0.33866,0 v -0.0423 h 0.0423 0.0423 v 0.0423 0.0423 h -0.0423 -0.0423 z m -0.508,-0.0847 v -0.0423 h 0.0423 0.0423 v 0.0423 0.0423 h -0.0423 -0.0423 z m 11.091347,0.0104 v -0.032 l 0.14816,-0.1162 0.14817,-0.1162 -0.1162,0.14817 -0.1162,0.14817 h -0.032 -0.032 z m 3.72533,-0.0104 v -0.0423 h 0.0423 0.0423 v 0.0423 0.0423 h -0.0423 -0.0423 z m -17.356677,-0.0847 v -0.0423 h 0.0423 0.0423 v 0.0423 0.0423 h -0.0423 -0.0423 z m 17.441347,-0.0847 v -0.0423 h 0.0423 0.0423 v 0.0423 0.0423 h -0.0423 -0.0423 z M 95.788773,110.9731 v -0.0423 h 0.0423 0.0423 v 0.0423 0.0423 h -0.0423 -0.0423 z m 3.175,-0.0423 0.0523,-0.0847 h 0.0423 0.0423 l -0.0523,0.0847 -0.0523,0.0847 h -0.0423 -0.0423 z m -2.921,-0.11663 v -0.032 l 0.14817,-0.1162 0.14816,-0.1162 -0.1162,0.14817 -0.1162,0.14817 h -0.032 -0.032 z m 13.462007,-0.0104 v -0.0423 h 0.0423 0.0423 v 0.0423 0.0423 h -0.0423 -0.0423 z m 3.47133,-0.0847 v -0.0423 h 0.0423 0.0423 v 0.0423 0.0423 h -0.0423 -0.0423 z m -16.002007,-0.0847 v -0.0423 h 0.0423 0.0423 v 0.0423 0.0423 h -0.0423 -0.0423 z m 2.24367,-0.0423 0.0523,-0.0847 h 0.0423 0.0423 l -0.0523,0.0847 -0.0523,0.0847 h -0.0423 -0.0423 z m 10.371677,0.0423 v -0.0423 h 0.0423 0.0423 v 0.0423 0.0423 h -0.0423 -0.0423 z M 89.269442,110.2957 v -0.0423 h 0.04233 0.04233 v 0.0423 0.0423 h -0.04233 -0.04233 z m 10.160001,0 v -0.0423 h 0.0423 0.0423 v 0.0423 0.0423 h -0.0423 -0.0423 z m 10.329337,-0.0847 v -0.0423 h 0.0423 0.0423 v 0.0423 0.0423 h -0.0423 -0.0423 z m 3.30868,-0.0917 0.007,-0.16228 0.0445,0.11112 0.0445,0.11113 -0.0512,0.0512 -0.0511,0.0511 0.007,-0.16227 z m -13.468687,-0.0776 v -0.0423 h 0.0423 0.0423 v 0.0423 0.0423 h -0.0423 -0.0423 z m -10.032998,-0.127 0.05233,-0.0847 h 0.04233 0.04233 l -0.05233,0.0847 -0.05233,0.0847 h -0.04233 -0.04233 z m 20.277675,0.0423 v -0.0423 h 0.0423 0.0423 v 0.0423 0.0423 h -0.0423 -0.0423 z M 90.031442,109.8723 V 109.83 h 0.04233 0.04233 v 0.0423 0.0423 h -0.04233 -0.04233 z m -6.096,-0.46567 v -0.11288 l 0.05644,0.0564 0.05644,0.0564 -0.05644,0.0564 -0.05644,0.0564 z m 0.254,-0.29633 v -0.0423 h 0.04233 0.04233 v 0.0423 0.0423 h -0.04233 -0.04233 z m 0.254,-0.33867 v -0.0423 h 0.04233 0.04233 v 0.0423 0.0423 h -0.04233 -0.04233 z m 15.240001,0 v -0.0423 h 0.0423 0.0423 v 0.0423 0.0423 h -0.0423 -0.0423 z m 13.384017,-0.34572 0.007,-0.16228 0.0445,0.11113 0.0445,0.11112 -0.0512,0.0512 -0.0511,0.0511 0.007,-0.16228 z m -29.894018,0.007 v -0.0423 h 0.04233 0.04233 v 0.0423 0.0423 h -0.04233 -0.04233 z m 12.107331,0 v -0.0423 h 0.0423 0.0423 v 0.0423 0.0423 h -0.0423 -0.0423 z m 3.97933,0 v -0.0423 h 0.0423 0.0423 v 0.0423 0.0423 h -0.0423 -0.0423 z m 10.498677,-0.0847 v -0.0423 h 0.0423 0.0423 v 0.0423 0.0423 h -0.0423 -0.0423 z m -24.807338,-0.16933 v -0.0423 h 0.04233 0.04233 v 0.0423 0.0423 h -0.04233 -0.04233 z m -2.032,-0.0847 v -0.0423 h 0.04233 0.04233 v 0.0423 0.0423 h -0.04233 -0.04233 z m 12.700001,-0.0847 v -0.0423 h 0.0423 0.0423 v 0.0423 0.0423 h -0.0423 -0.0423 z m -10.414001,-0.16933 v -0.0423 h 0.04233 0.04233 v 0.0423 0.0423 h -0.04233 -0.04233 z m 13.242251,-0.0554 -0.0604,-0.0978 0.0978,0.0604 0.0977,0.0604 v 0.0373 0.0373 h -0.0373 -0.0373 z m 11.006667,-0.0847 -0.0604,-0.0978 0.0978,0.0604 0.0977,0.0604 v 0.0373 0.0373 h -0.0373 -0.0373 z m -26.788918,-0.0293 v -0.0423 h 0.04233 0.04233 v 0.0423 0.0423 h -0.04233 -0.04233 z m 13.292661,-0.16934 v -0.0423 h 0.0423 0.0423 v 0.0423 0.0423 h -0.0423 -0.0423 z m -13.123328,-0.0847 v -0.0423 h 0.04233 0.04233 v 0.0423 0.0423 h -0.04233 -0.04233 z m 2.836333,-0.127 0.05233,-0.0847 h 0.04233 0.04233 l -0.05233,0.0847 -0.05233,0.0847 h -0.04233 -0.04233 z m 10.371665,0.0423 v -0.0423 h 0.0423 0.0423 v 0.0423 0.0423 h -0.0423 -0.0423 z m 2.45533,0 v -0.0423 h 0.0423 0.0423 v 0.0423 0.0423 h -0.0423 -0.0423 z m 14.308677,-0.0847 v -0.0423 h 0.0423 0.0423 v 0.0423 0.0423 h -0.0423 -0.0423 z m -16.594677,-0.254 v -0.0423 h 0.0423 0.0423 v 0.0423 0.0423 h -0.0423 -0.0423 z m 16.510007,0 v -0.0423 h 0.0423 0.0423 v 0.0423 0.0423 h -0.0423 -0.0423 z m -28.871335,-0.0847 v -0.0423 h 0.04233 0.04233 v 0.0423 0.0423 h -0.04233 -0.04233 z m 0.169333,-0.0847 v -0.0423 h 0.04233 0.04233 v 0.0423 0.0423 h -0.04233 -0.04233 z m 2.032,0 v -0.0423 h 0.04233 0.04233 v 0.0423 0.0423 h -0.04233 -0.04233 z m 10.244665,0 v -0.0423 h 0.0423 0.0423 v 0.0423 0.0423 h -0.0423 -0.0423 z m 12.107337,0 v -0.0423 h 0.0423 0.0423 v 0.0423 0.0423 h -0.0423 -0.0423 z m 4.23334,0 v -0.0423 h 0.0423 0.0423 v 0.0423 0.0423 h -0.0423 -0.0423 z m -13.970007,-0.0847 v -0.0423 h 0.0423 0.0423 v 0.0423 0.0423 h -0.0423 -0.0423 z m -14.224001,-0.0847 v -0.0423 h 0.04233 0.04233 v 0.0423 0.0423 h -0.04233 -0.04233 z m 23.537338,0 v -0.0423 h 0.0423 0.0423 v 0.0423 0.0423 h -0.0423 -0.0423 z m -0.508,-0.0847 v -0.0423 h 0.0423 0.0423 v 0.0423 0.0423 h -0.0423 -0.0423 z m -22.944672,-0.0847 v -0.0423 h 0.04233 0.04233 v 0.0423 0.0423 h -0.04233 -0.04233 z m 14.336885,-0.0141 0.0564,-0.0564 0.0564,0.0564 0.0564,0.0564 h -0.11288 -0.11289 z m 13.603117,-0.0705 v -0.0423 h 0.0423 0.0423 v 0.0423 0.0423 h -0.0423 -0.0423 z m -16.002007,-0.0847 v -0.0423 h 0.0423 0.0423 v 0.0423 0.0423 h -0.0423 -0.0423 z m -9.863661,-0.127 0.05233,-0.0847 h 0.04233 0.04233 l -0.05233,0.0847 -0.05233,0.0847 h -0.04233 -0.04233 z m -2.057828,-0.21167 0.0031,-0.254 0.03903,0.14978 0.03903,0.14978 -0.04217,0.10422 -0.04217,0.10422 0.0031,-0.254 z m 27.669496,0 v -0.0423 h 0.0423 0.0423 v 0.0423 0.0423 h -0.0423 -0.0423 z m -15.663337,-0.16933 v -0.0423 h 0.0423 0.0423 v 0.0423 0.0423 h -0.0423 -0.0423 z m 15.189587,-0.47875 -0.0604,-0.0977 0.0978,0.0604 0.0977,0.0604 v 0.0373 0.0373 h -0.0373 -0.0373 z m -15.091547,-0.24092 v -0.21166 l 0.0427,0.10583 0.0427,0.10583 -0.0427,0.10584 -0.0427,0.10583 z m 14.583547,-0.26708 -0.0604,-0.0978 0.0977,0.0604 0.0978,0.0604 v 0.0373 0.0373 h -0.0373 -0.0373 z m -26.697567,-0.2903 0.0067,-0.16228 0.04447,0.11112 0.04447,0.11113 -0.05115,0.0511 -0.05115,0.0512 0.0067,-0.16227 z m 26.324657,0.007 v -0.0423 h 0.0423 0.0423 v 0.0423 0.0423 h -0.0423 -0.0423 z m -24.045342,-0.0847 v -0.0423 h 0.04233 0.04233 v 0.0423 0.0423 h -0.04233 -0.04233 z m 9.736665,-0.16933 v -0.0423 h 0.0423 0.0423 v 0.0423 0.0423 h -0.0423 -0.0423 z m 13.800677,-0.0847 v -0.0423 h 0.0423 0.0423 v 0.0423 0.0423 h -0.0423 -0.0423 z m -23.452675,-0.254 v -0.0423 h 0.04233 0.04233 v 0.0423 0.0423 h -0.04233 -0.04233 z m 22.944675,0 v -0.0423 h 0.0423 0.0423 v 0.0423 0.0423 h -0.0423 -0.0423 z m -0.16934,-0.0847 v -0.0423 h 0.0423 0.0423 v 0.0423 0.0423 h -0.0423 -0.0423 z m -25.146002,-0.0847 v -0.0423 h 0.04233 0.04233 v 0.0423 0.0423 h -0.04233 -0.04233 z m 24.976672,0 v -0.0423 h 0.0423 0.0423 v 0.0423 0.0423 h -0.0423 -0.0423 z m -25.146005,-0.0847 v -0.0423 h 0.04233 0.04233 v 0.0423 0.0423 h -0.04233 -0.04233 z m 2.624667,0 v -0.0423 h 0.04233 0.04233 v 0.0423 0.0423 h -0.04233 -0.04233 z m 21.928668,-0.0847 v -0.0423 h 0.0423 0.0423 v 0.0423 0.0423 h -0.0423 -0.0423 z m -0.42333,-0.0847 v -0.0423 h 0.0423 0.0423 v 0.0423 0.0423 h -0.0423 -0.0423 z m -24.553338,-0.0847 v -0.0423 h 0.04233 0.04233 v 0.0423 0.0423 h -0.04233 -0.04233 z m 24.114128,-0.0155 0.11113,-0.0445 0.0511,0.0511 0.0512,0.0512 -0.16228,-0.007 -0.16227,-0.007 z m -24.283462,-0.0692 v -0.0423 h 0.04233 0.04233 v 0.0423 0.0423 h -0.04233 -0.04233 z m -0.169333,-0.0847 v -0.0423 h 0.04233 0.04233 v 0.0423 0.0423 h -0.04233 -0.04233 z m -0.338667,-0.16933 v -0.0423 h 0.04233 0.04233 v 0.0423 0.0423 h -0.04233 -0.04233 z m -0.169333,-0.0847 v -0.0423 h 0.04233 0.04233 v 0.0423 0.0423 h -0.04233 -0.04233 z m 4.148667,0 v -0.0423 h 0.04233 0.04233 v 0.0423 0.0423 h -0.04233 -0.04233 z m -4.487334,-0.33867 v -0.0423 h 0.04233 0.04233 v 0.0423 0.0423 h -0.04233 -0.04233 z m 4.741334,-0.0847 v -0.0423 h 0.04233 0.04233 v 0.0423 0.0423 h -0.04233 -0.04233 z m 0.08467,-0.16934 v -0.0423 h 0.04233 0.04233 v 0.0423 0.0423 h -0.04233 -0.04233 z m 0.169334,-0.254 v -0.0423 h 0.04233 0.04233 v 0.0423 0.0423 h -0.04233 -0.04233 z m 12.869334,-0.16933 v -0.0423 h 0.0423 0.0423 v 0.0423 0.0423 h -0.0423 -0.0423 z m -12.361334,-0.42333 0.19885,-0.21167 h 0.04233 0.04233 l -0.198851,0.21167 -0.19885,0.21166 h -0.04233 -0.04233 z m 9.855577,0.11392 -0.0604,-0.0978 0.0977,0.0604 0.0978,0.0604 v 0.0373 0.0373 h -0.0373 -0.0373 z m 0.47376,0.0554 v -0.0423 h 0.0423 0.0423 v 0.0423 0.0423 h -0.0423 -0.0423 z m 1.936527,-0.10583 -0.1162,-0.14817 0.14817,0.1162 0.14817,0.1162 v 0.032 0.032 h -0.032 -0.032 z m -5.333997,-0.0847 -0.1162,-0.14817 0.14817,0.1162 0.14816,0.1162 v 0.032 0.032 h -0.032 -0.032 z m 3.8208,0.10583 v -0.0423 h 0.0423 0.0423 v 0.0423 0.0423 h -0.0423 -0.0423 z m 0.33867,-0.0847 v -0.0423 h 0.0423 0.0423 v 0.0423 0.0423 h -0.0423 -0.0423 z m 0.508,-0.0847 v -0.0423 h 0.0423 0.0423 v 0.0423 0.0423 h -0.0423 -0.0423 z m 0.423327,0 v -0.0423 h 0.0423 0.0423 v 0.0423 0.0423 h -0.0423 -0.0423 z m -17.187331,-0.0847 v -0.0423 h 0.04233 0.04233 v 0.0423 0.0423 h -0.04233 -0.04233 z m 11.853334,-0.0847 v -0.0423 h 0.0423 0.0423 v 0.0423 0.0423 h -0.0423 -0.0423 z m -11.768667,-0.0847 v -0.0423 h 0.04233 0.04233 v 0.0423 0.0423 h -0.04233 -0.04233 z m 14.647337,0 v -0.0423 h 0.0423 0.0423 v 0.0423 0.0423 h -0.0423 -0.0423 z m -3.217337,-0.16933 v -0.0423 h 0.04233 0.04233 v 0.0423 0.0423 h -0.04233 -0.04233 z m -5.503334,-0.16934 v -0.0423 h 0.04233 0.04233 v 0.0423 0.0423 h -0.04233 -0.04233 z m 5.249334,0 v -0.0423 h 0.04233 0.04233 v 0.0423 0.0423 h -0.04233 -0.04233 z m -8.636,-0.16933 v -0.0423 h 0.04233 0.04233 v 0.0423 0.0423 h -0.04233 -0.04233 z m 0.254,0 v -0.0423 h 0.04233 0.04233 v 0.0423 0.0423 h -0.04233 -0.04233 z m 8.128,0 v -0.0423 h 0.04233 0.04233 v 0.0423 0.0423 h -0.04233 -0.04233 z m 3.386667,0 v -0.0423 h 0.0423 0.0423 v 0.0423 0.0423 h -0.0423 -0.0423 z m -7.789334,-0.16933 v -0.0423 h 0.04233 0.04233 v 0.0423 0.0423 h -0.04233 -0.04233 z m 3.979333,0 v -0.0423 h 0.04233 0.04233 v 0.0423 0.0423 h -0.04233 -0.04233 z m -10.16,-0.0847 v -0.0423 h 0.04233 0.04233 v 0.0423 0.0423 h -0.04233 -0.04233 z m 1.608667,0 v -0.0423 h 0.04233 0.04233 v 0.0423 0.0423 h -0.04233 -0.04233 z m 1.100667,0 v -0.0423 h 0.04233 0.04233 v 0.0423 0.0423 h -0.04233 -0.04233 z m 3.725333,0 v -0.0423 h 0.04233 0.04233 v 0.0423 0.0423 h -0.04233 -0.04233 z m 3.556,0 v -0.0423 h 0.04233 0.04233 v 0.0423 0.0423 h -0.04233 -0.04233 z m -3.302,-0.0847 v -0.0423 h 0.04233 0.04233 v 0.0423 0.0423 h -0.04233 -0.04233 z m 3.048,0 v -0.0423 h 0.04233 0.04233 v 0.0423 0.0423 h -0.04233 -0.04233 z m 3.928914,-0.0554 -0.0604,-0.0978 0.0977,0.0604 0.0978,0.0604 v 0.0373 0.0373 h -0.0373 -0.0373 z m -6.722914,-0.0293 v -0.0423 h 0.04233 0.04233 v 0.0423 0.0423 h -0.04233 -0.04233 z m 2.54,0 v -0.0423 h 0.04233 0.04233 v 0.0423 0.0423 h -0.04233 -0.04233 z m -9.313333,-0.0847 v -0.0423 h 0.04233 0.04233 v 0.0423 0.0423 h -0.04233 -0.04233 z m 0.931333,0 v -0.0423 h 0.04233 0.04233 v 0.0423 0.0423 h -0.04233 -0.04233 z m 6.180667,0 v -0.0423 h 0.04233 0.04233 v 0.0423 0.0423 h -0.04233 -0.04233 z m -6.434667,-0.0847 v -0.0423 h 0.04233 0.04233 v 0.0423 0.0423 h -0.04233 -0.04233 z m 2.243667,-0.0423 0.05233,-0.0847 h 0.04233 0.04233 l -0.05233,0.0847 -0.05233,0.0847 h -0.04233 -0.04233 z m 5.0165,0.0249 0.1905,-0.0367 0.1905,0.0367 0.1905,0.0367 h -0.381 -0.381 z m -4.6355,-0.40591 v -0.04233 h 0.04233 0.04233 v 0.04233 0.04233 h -0.04233 -0.04233 z m 0.423333,-0.338666 v -0.04233 h 0.04233 0.04233 v 0.04233 0.04233 h -0.04233 -0.04233 z m 9.313334,0 v -0.04233 h 0.0423 0.0423 v 0.04233 0.04233 h -0.0423 -0.0423 z m -8.974667,-0.254 v -0.04233 h 0.04233 0.04233 v 0.04233 0.04233 h -0.04233 -0.04233 z m 0.169333,-0.169334 v -0.04233 h 0.04233 0.04233 v 0.04233 0.04233 h -0.04233 -0.04233 z m 0,-0.254 v -0.04233 h 0.04233 0.04233 v 0.04233 0.04233 h -0.04233 -0.04233 z m -0.08467,-0.254 v -0.04233 h 0.04233 0.04233 v 0.04233 0.04233 h -0.04233 -0.04233 z m 9.482664,-0.169333 v -0.04233 h 0.0423 0.0423 v 0.04233 0.04233 h -0.0423 -0.0423 z m -9.56733,-0.08467 v -0.04233 h 0.04233 0.04233 v 0.04233 0.04233 h -0.04233 -0.04233 z m 5.870222,-0.09878 0.05644,-0.05644 0.05645,0.05644 0.05644,0.05644 h -0.112889 -0.112888 z m 3.781778,0.01411 v -0.04233 h 0.0423 0.0423 v 0.04233 0.04233 h -0.0423 -0.0423 z m -4.205112,-0.09878 0.05644,-0.05644 0.05645,0.05644 0.05644,0.05644 H 93.248769 93.13588 Z m -0.72143,-0.08606 0.111125,-0.04447 0.05115,0.05115 0.05115,0.05115 -0.162277,-0.0067 -0.162278,-0.0067 z m -1.31057,-0.08327 0.05644,-0.05644 0.05644,0.05644 0.05644,0.05644 H 91.216769 91.10388 Z m -0.197555,-0.07056 v -0.04233 h 0.04233 0.04233 v 0.04233 0.04233 h -0.04233 -0.04233 z m 6.434667,0 v -0.04233 h 0.0423 0.0423 v 0.04233 0.04233 h -0.0423 -0.0423 z m -9.821334,-0.08467 v -0.04233 h 0.04233 0.04233 v 0.04233 0.04233 h -0.04233 -0.04233 z m -0.08467,-0.254 v -0.04233 h 0.04233 0.04233 v 0.04233 0.04233 h -0.04233 -0.04233 z m 9.736664,0 v -0.04233 h 0.0423 0.0423 v 0.04233 0.04233 h -0.0423 -0.0423 z m -6.434664,-0.08467 v -0.04233 h 0.04233 0.04233 v 0.04233 0.04233 h -0.04233 -0.04233 z m 3.386666,0 v -0.04233 h 0.04233 0.04233 v 0.04233 0.04233 h -0.04233 -0.04233 z M 87.406769,97.17234 v -0.04233 h 0.04233 0.04233 v 0.04233 0.04233 h -0.04233 -0.04233 z m 9.398004,0 v -0.04233 h 0.0423 0.0423 v 0.04233 0.04233 h -0.0423 -0.0423 z m -0.16934,-0.08467 v -0.04233 h 0.0423 0.0423 V 97.08767 97.13 h -0.0423 -0.0423 z M 90.708769,97.003 v -0.04233 h 0.04233 0.04233 v 0.04233 0.04233 h -0.04233 -0.04233 z m 3.683,-0.04233 0.05233,-0.08467 h 0.04233 0.04233 l -0.05233,0.08467 -0.05233,0.08467 h -0.04233 -0.04233 z m 1.820334,-0.127 v -0.04233 h 0.0423 0.0423 v 0.04233 0.04233 h -0.0423 -0.0423 z m -8.636001,-0.169334 v -0.04233 h 0.04233 0.04233 v 0.04233 0.04233 h -0.04233 -0.04233 z m 2.963334,-0.08467 v -0.04233 h 0.04233 0.04233 v 0.04233 0.04233 h -0.04233 -0.04233 z M 88.168769,96.41034 v -0.04233 h 0.04233 0.04233 v 0.04233 0.04233 h -0.04233 -0.04233 z m 7.196664,0 v -0.04233 h 0.0423 0.0423 v 0.04233 0.04233 h -0.0423 -0.0423 z m -7.027331,-0.08467 v -0.04233 h 0.04233 0.04233 v 0.04233 0.04233 h -0.04233 -0.04233 z m 2.116667,0 v -0.04233 h 0.04233 0.04233 v 0.04233 0.04233 h -0.04233 -0.04233 z m 4.684884,-0.01411 0.0564,-0.05645 0.0565,0.05645 0.0564,0.05644 h -0.11288 -0.11289 z m -6.293551,-0.15522 v -0.04233 h 0.04233 0.04233 v 0.04233 0.04233 h -0.04233 -0.04233 z m 0.254,-0.08467 v -0.04233 h 0.04233 0.04233 v 0.04233 0.04233 h -0.04233 -0.04233 z M 89.269436,95.987 v -0.04233 h 0.04233 0.04233 v 0.04233 0.04233 h -0.04233 -0.04233 z m 0.846666,-0.08467 V 95.86 h 0.04233 0.04233 v 0.04233 0.04233 h -0.04233 -0.04233 z"
         id="path415" /><path
         style="fill:#f96a35;stroke-width:0.0846667"
         d="m 83.042588,128.67219 -0.207819,-0.20782 4.23e-4,-0.15201 4.24e-4,-0.15202 -0.263972,-0.65617 -0.263972,-0.65616 -0.09632,-0.002 -0.09632,-0.002 -0.762,-0.0391 -0.762,-0.0391 -0.485321,-0.0968 -0.48532,-0.0968 -0.167893,0.20174 -0.167893,0.20175 -0.143168,0.29634 -0.143168,0.29633 -0.201591,0.32079 -0.201589,0.32079 -0.213287,0.0811 -0.213287,0.0811 -0.270408,-0.13562 -0.270409,-0.13562 -0.775337,-0.47793 -0.775338,-0.47792 -0.04059,-0.254 -0.04059,-0.254 0.117429,-0.13367 0.117429,-0.13367 2.54e-4,-0.078 2.54e-4,-0.078 0.296116,-0.49107 0.296116,-0.49107 v -0.15273 -0.15273 l -0.1905,-0.20589 -0.1905,-0.20589 -0.261288,-0.33564 -0.261288,-0.33564 -0.287659,-0.48684 -0.28766,-0.48683 h -0.201481 -0.201481 l -0.719646,0.17397 -0.719645,0.17396 -0.18047,-0.0258 -0.180469,-0.0258 -0.144557,-0.29633 -0.144556,-0.29633 -0.0041,-0.15377 -0.0041,-0.15376 2.301981,0.044 2.30198,0.044 0.20946,0.27904 0.209459,0.27905 0.388393,0.40874 0.388393,0.40874 0.550334,0.32584 0.550333,0.32585 0.54315,0.17558 0.54315,0.17559 h 0.82514 0.82514 l 0.509127,-0.15846 0.509127,-0.15846 0.577916,-0.32138 0.577917,-0.32139 0.508,-0.51991 0.508,-0.51992 0.326787,-0.61506 0.326787,-0.61507 0.116708,-0.43834 0.116708,-0.43835 0.001,-0.87056 10e-4,-0.87057 -0.256914,-0.6662 -0.256914,-0.6662 -0.246922,-0.36766 -0.246922,-0.36765 0.453287,-0.46625 0.453288,-0.46624 0.2544,-0.29536 0.254402,-0.29536 0.169064,0.153 0.169065,0.153 0.869571,-0.30214 0.869571,-0.30214 h 0.186478 0.186478 l 0.08517,0.10583 0.08516,0.10584 0.23041,0.4445 0.230409,0.4445 h 0.07579 0.07579 l -0.0027,0.8255 -0.0027,0.8255 -0.780469,0.33998 -0.780469,0.33999 -0.0033,1.42128 -0.0033,1.42128 0.088,0.0712 0.088,0.0712 0.782534,0.39393 0.782535,0.39392 0.05061,0.20165 0.05061,0.20165 -0.06056,0.19661 -0.06056,0.19661 -0.370531,0.75546 -0.37053,0.75546 -0.140007,0.15471 -0.140007,0.1547 H 89.17451 89.021171 l -0.278038,-0.12169 -0.27804,-0.1217 -0.48159,-0.21697 -0.481591,-0.21697 h -0.147629 -0.14763 l -0.694179,0.65617 -0.69418,0.65616 -0.2641,0.19694 -0.264101,0.19694 0.001,0.14173 10e-4,0.14173 0.243438,0.75349 0.243437,0.7535 -0.07251,0.25284 -0.07251,0.25283 -0.02378,0.0204 -0.02378,0.0204 -1.042209,0.34909 -1.042207,0.34908 H 83.376165 83.250358 L 83.04254,128.67274 Z M 56.925406,120.933 56.672769,120.68037 v -1.1381 -1.13809 l 0.171467,-0.21799 0.171466,-0.21798 4.762553,-0.0263 4.762554,-0.0263 0.587215,-0.29633 0.587216,-0.29633 0.245291,-0.31057 0.245291,-0.31056 0.04472,-0.55708 0.04472,-0.55707 -0.139624,-0.3656 -0.139623,-0.3656 -0.27412,-0.25935 -0.274119,-0.25934 -0.391979,-0.21455 -0.391978,-0.21455 -0.497022,-0.0622 -0.497021,-0.0622 -0.169333,-0.019 -0.169334,-0.019 -4.115954,-0.0108 -4.115955,-0.0108 -0.223212,-0.22321 -0.223212,-0.22321 v -1.0428 -1.04281 l 0.09751,-0.21402 0.09752,-0.21402 0.135318,-0.0419 0.135318,-0.0419 4.148666,-0.0469 4.148667,-0.0469 0.487942,-0.13589 0.48794,-0.1359 0.359207,-0.31619 0.359207,-0.31618 0.158664,-0.44123 0.158663,-0.44123 -0.04736,-0.39985 -0.04736,-0.39986 -0.140201,-0.33409 -0.1402,-0.3341 -0.29782,-0.2488 -0.297819,-0.2488 -0.435768,-0.1506 -0.435768,-0.15061 -4.203212,-0.003 -4.203213,-0.003 -0.262954,-0.24564 -0.262954,-0.24563 v -1.1354 -1.1354 l 0.168999,-0.1814 0.168999,-0.1814 0.276286,-0.0518 0.276287,-0.0518 4.359548,0.0301 4.359548,0.0301 0.592666,0.19167 0.592667,0.19167 0.625569,0.30713 0.625569,0.30712 0.49973,0.46266 0.499729,0.46266 0.351628,0.60151 0.351628,0.6015 0.152246,0.635 0.152246,0.635 -5.93e-4,0.71967 -5.92e-4,0.71967 -0.125644,0.53293 -0.125644,0.53293 -0.388141,0.67292 -0.388141,0.67292 -0.07763,0.048 -0.07763,0.048 v 0.1546 0.1546 l 0.1905,0.13183 0.1905,0.13183 0.26097,0.23774 0.26097,0.23774 0.338929,0.508 0.338929,0.508 0.198658,0.46566 0.198658,0.46567 0.03738,1.09308 0.03738,1.09308 -0.10262,0.45855 -0.10262,0.45856 -0.258859,0.5227 -0.258859,0.5227 -0.601456,0.60073 -0.601455,0.60073 -0.338667,0.15133 -0.338666,0.15132 -0.34822,0.16004 -0.34822,0.16004 -0.837113,0.22722 -0.837114,0.22721 -4.721529,0.03 -4.721529,0.03 -0.252638,-0.25264 z m 42.034515,-0.0501 -0.207819,-0.20782 v -4.13776 -4.13776 l 0.192101,-0.18046 0.192099,-0.18047 4.401068,-0.0248 4.40107,-0.0248 0.47882,-0.22448 0.47882,-0.22449 0.34299,-0.35343 0.343,-0.35343 0.18114,-0.48042 0.18114,-0.48042 -0.039,-0.71967 -0.039,-0.71966 -0.17591,-0.381 -0.17591,-0.381 -0.32242,-0.31179 -0.32241,-0.31179 -0.42333,-0.20679 -0.42334,-0.20679 -0.33961,-0.0507 -0.33962,-0.0507 -4.27472,-0.008 -4.274714,-0.008 -0.18311,0.53528 -0.183109,0.53527 -0.0068,0.0847 -0.0068,0.0847 0.765064,0.5924 0.765065,0.5924 0.04945,0.19701 0.04945,0.19701 -0.09734,0.21364 -0.09734,0.21364 -0.584979,0.78858 -0.584979,0.78859 -0.170862,0.0542 -0.170861,0.0542 -0.279398,-0.14394 -0.279399,-0.14393 -0.539011,-0.36843 -0.53901,-0.36843 h -0.08625 -0.08625 l -0.718866,0.55033 -0.718865,0.55034 H 94.97381 94.857432 v -1.33722 -1.33722 l 0.341095,-0.32322 0.341095,-0.32322 0.257482,-0.37424 0.257483,-0.37424 0.212903,-0.46504 0.212902,-0.46504 0.112144,-0.69645 0.112144,-0.69645 -0.09017,-0.7374 -0.09017,-0.73741 0.108244,-0.13042 0.108249,-0.13043 h 5.525947 5.52595 l 0.70544,0.13382 0.70544,0.13382 0.51041,0.21462 0.51042,0.21463 0.45699,0.30308 0.45699,0.30308 0.41486,0.41486 0.41487,0.41486 0.22334,0.35178 0.22334,0.35178 0.28501,0.67325 0.28501,0.67324 0.0967,0.86502 0.0967,0.86501 -0.0983,0.83241 -0.0983,0.83241 -0.21165,0.5382 -0.21165,0.5382 -0.22754,0.39313 -0.22754,0.39313 -0.30167,0.33867 -0.30167,0.33867 -0.40565,0.34675 -0.40565,0.34675 -0.52839,0.25737 -0.52839,0.25737 -0.59267,0.19451 -0.59266,0.1945 -3.16075,0.048 -3.16075,0.048 -0.12008,0.16435 -0.12009,0.16435 v 2.57 2.57 l -0.20782,0.20782 -0.20782,0.20781 h -1.15069 -1.150704 z m -24.795782,-4.72716 -0.47337,-0.44764 v -0.18819 -0.1882 l 0.514153,-0.63417 0.514153,-0.63416 h 0.02789 0.02789 l -0.01288,1.26999 -0.01288,1.26998 -0.0558,2e-5 -0.0558,1e-5 z m 6.553963,-2.13168 v -1.15811 l 0.105834,0.11188 0.105833,0.11188 0.353676,0.46567 0.353677,0.46567 0.344823,0.44622 0.344824,0.44621 v 0.0281 0.0281 l -0.660024,0.0509 -0.660023,0.0509 -0.14431,0.0554 -0.14431,0.0554 z m 6.879167,-0.23784 -0.529167,-0.267 8.47e-4,-0.13009 8.47e-4,-0.13008 1.248028,-1.64311 1.248028,-1.64311 0.136659,-0.0849 0.136658,-0.0849 0.140909,0.0541 0.140909,0.0541 -0.02357,1.1659 -0.02365,1.16591 -0.222371,0.0258 -0.22237,0.0258 -0.370297,0.69388 -0.370295,0.69389 -0.186652,0.1905 -0.186651,0.1905 -0.194349,-0.005 -0.194348,-0.005 -0.529167,-0.267 z m -14.721715,-0.58146 -0.264881,-0.0722 -0.261005,-0.26697 -0.261004,-0.26696 -0.05397,-0.35992 -0.05397,-0.35992 0.0629,-0.19886 0.0629,-0.19886 0.127731,-0.19538 0.12773,-0.19538 0.337689,-0.17227 0.33769,-0.17228 0.377299,0.0566 0.377299,0.0566 0.292401,0.26874 0.292401,0.26874 0.04915,0.47999 0.04915,0.47998 -0.19005,0.3075 -0.190049,0.30751 -0.180922,0.1125 -0.180923,0.11251 -0.296333,0.0403 -0.296333,0.0403 z m 10.433231,-4.6584 -0.558683,-0.77568 v -0.10717 -0.10717 l 0.204675,-0.161 0.204676,-0.161 0.663158,-0.28406 0.663158,-0.28407 0.0398,-0.0313 0.03981,-0.0313 0.012,-1.42336 0.012,-1.42336 -0.800908,-0.41361 -0.800908,-0.41362 -0.118733,-0.167 -0.118733,-0.16701 0.0013,-0.17166 0.0013,-0.17166 0.425694,-0.9287 0.425694,-0.92871 0.144046,-0.15916 0.144045,-0.15917 0.296801,0.0404 0.296802,0.0404 0.66235,0.30664 0.66235,0.30664 h 0.09194 0.09194 l 0.515711,-0.5348 0.515711,-0.534808 0.486833,-0.364367 0.486834,-0.364366 v -0.100192 -0.100192 l -0.297611,-0.883733 -0.297612,-0.883732 0.158413,-0.212403 0.158412,-0.212403 0.795365,-0.285474 0.795366,-0.285474 0.354713,-0.08745 0.354712,-0.08745 0.195621,0.128581 0.195621,0.128581 0.20832,0.625345 0.208321,0.625345 0.06685,0.08043 0.06685,0.08043 v 0.143342 0.143342 l 0.133925,0.05139 0.133924,0.05139 0.479909,0.0026 0.479909,0.0026 0.631474,0.08195 0.631475,0.08195 0.147806,0.04691 0.147807,0.04691 0.202435,-0.321972 0.202434,-0.321972 0.284845,-0.532003 0.284843,-0.532002 0.201611,-0.0506 0.20161,-0.0506 0.30983,0.09568 0.30983,0.09568 0.762,0.449996 0.762,0.449997 0.119028,0.245323 0.11903,0.245323 -0.394196,0.772929 -0.394196,0.772929 v 0.14183 0.14183 l 0.496789,0.61252 0.496788,0.61251 0.230923,0.40217 0.230924,0.40216 0.140121,4e-5 0.140122,3e-5 0.876454,-0.17946 0.876447,-0.17946 0.22422,0.1674 0.22421,0.1674 v 0.11786 0.11786 l -2.490037,0.0225 -2.49004,0.0225 -0.388626,-0.40749 -0.388634,-0.40749 -0.381,-0.25564 -0.381,-0.25565 -0.451725,-0.19029 -0.451726,-0.1903 -0.648941,-0.1251 -0.648941,-0.1251 -0.550334,0.0567 -0.550333,0.0567 -0.531848,0.1628 -0.531848,0.16279 -0.510671,0.2993 -0.510671,0.2993 -0.453121,0.45312 -0.453123,0.45312 -0.291396,0.49719 -0.291397,0.4972 -0.191522,0.50299 -0.191521,0.50299 -0.04341,0.98306 -0.04341,0.98306 -0.461247,0.54094 -0.461246,0.54094 -0.649449,0.79227 -0.64945,0.79226 -0.247964,0.32957 -0.247965,0.32957 h -0.103521 -0.10352 z"
         id="path413" /></g></g></svg>
